<?xml version="1.0" encoding="UTF-8"?>
<svg width="132px" height="46px" viewBox="0 0 132 46" version="1.1" xmlns="http://www.w3.org/2000/svg" xmlns:xlink="http://www.w3.org/1999/xlink">
    <title>Renata</title>
    <defs>
        <polygon id="path-1" points="0 0.011745959 132.000024 0.011745959 132.000024 45.7586533 0 45.7586533"></polygon>
    </defs>
    <g stroke="none" stroke-width="1" fill="none" fill-rule="evenodd">
        <g transform="translate(-370.000000, -28.000000)">
            <g transform="translate(370.000000, 7.000000)">
                <g transform="translate(0.000000, 21.000000)">
                    <g transform="translate(0.000000, 0.168443)">
                        <mask id="mask-2" fill="white">
                            <use xlink:href="#path-1"></use>
                        </mask>
                        <g></g>
                        <path d="M132.000024,42.6612871 C132.000024,44.3718374 130.625279,45.7586533 128.930042,45.7586533 L3.06956859,45.7586533 C1.37433125,45.7586533 -5.40458237e-05,44.3718374 -5.40458237e-05,42.6612871 L-5.40458237e-05,3.10857166 C-5.40458237e-05,1.39856179 1.37433125,0.011745959 3.06956859,0.011745959 L128.930042,0.011745959 C130.625279,0.011745959 132.000024,1.39856179 132.000024,3.10857166 L132.000024,42.6612871 Z" fill="#807250" mask="url(#mask-2)"></path>
                    </g>
                    <path d="M130.431416,39.7706462 C130.431416,40.6269122 129.588662,41.3212209 128.547739,41.3212209 L3.4354408,41.3212209 C2.39505869,41.3212209 1.55050262,40.6269122 1.55050262,39.7706462 L1.55050262,3.29782211 C1.55050262,2.44209657 2.39505869,1.74922911 3.4354408,1.74922911 L128.547739,1.74922911 C129.588662,1.74922911 130.431416,2.44209657 130.431416,3.29782211 L130.431416,39.7706462 Z" fill="#1A2B64"></path>
                    <path d="M29.8704782,34.3706397 C29.8704782,33.60427 29.7996782,33.4763615 28.9772809,33.4763615 C28.1552439,33.4763615 27.7475582,33.1484835 27.0179396,32.145393 C26.8422907,31.9030876 21.8659314,23.1597344 21.8659314,23.1597344 C23.441187,22.3510287 26.7194265,20.7743319 26.7194265,15.280754 C26.7194265,7.27368512 20.0761139,7.06128503 16.7971538,7.06128503 L6.83218478,7.06128503 C6.10761044,7.06128503 5.93682564,7.18991409 5.93682564,7.95682433 L5.93682564,8.92370411 C5.93682564,9.40741424 6.2656044,9.48938374 6.83218478,9.81978387 L9.00356583,11.1511127 L9.00356583,32.145393 L6.83218478,33.4763615 C6.29298762,33.8363067 5.93682564,34.0033083 5.93682564,34.3706397 L5.93682564,35.3387806 C5.93682564,36.1062313 6.10761044,36.2343199 6.83218478,36.2343199 L16.7557186,36.2343199 C17.4784914,36.2343199 17.6489159,36.1062313 17.6489159,35.3387806 L17.6489159,34.3706397 C17.6489159,33.9409754 17.3750838,33.8687342 16.7557186,33.4763615 L14.7524201,32.145393 L14.7524201,24.1810203 L16.7971538,24.1810203 L22.5467286,35.6372937 C22.8452417,36.1907229 22.8452417,36.2343199 23.5263993,36.2343199 L28.9772809,36.2343199 C29.7007743,36.2343199 29.8704782,36.1062313 29.8704782,35.3387806 L29.8704782,34.3706397 Z M14.7524201,19.7092688 L14.7524201,11.532496 L16.3289368,11.532496 C18.5433743,11.532496 20.9718333,11.6602243 20.9718333,15.3663266 C20.9718333,19.2839282 18.6285866,19.7092688 15.8601793,19.7092688 L14.7524201,19.7092688 Z" fill="#FEFEFE"></path>
                    <path d="M46.9050372,26.7363068 C47.7155444,26.7363068 47.8856086,26.4689602 47.8856086,25.620801 C47.8856086,20.2210828 46.6076051,13.4390525 39.368167,13.4390525 C33.660928,13.4390525 30.0425601,18.3480347 30.0425601,25.4419094 C30.0425601,33.6530913 33.9598014,37.0012301 39.5814678,37.0012301 C42.9458203,37.0012301 47.2040908,35.5284814 47.2040908,34.367397 C47.2040908,34.1886855 47.1183381,34.0092533 47.0765426,33.8761204 L46.010759,31.1992308 C45.926988,31.0203391 45.7562032,30.8427085 45.5430825,30.8427085 C44.9464166,30.8427085 43.1998357,32.3154572 40.1343566,32.3154572 C36.1317229,32.3154572 35.4496646,29.2350254 35.4496646,26.7363068 L46.9050372,26.7363068 Z M35.4496646,22.587209 C35.5782937,21.3362283 35.748538,17.5894115 39.0703745,17.5894115 C42.0081253,17.5894115 42.1367544,20.7572174 42.1367544,22.587209 L35.4496646,22.587209 Z" id="Fill-8" fill="#FEFEFE"></path>
                    <path d="M71.4785563,35.6165761 C71.4785563,36.1076725 71.3940647,36.2427871 70.8829713,36.2427871 L63.8971883,36.2427871 C63.3873561,36.2427871 63.3021438,36.1076725 63.3021438,35.6165761 L63.3021438,21.8723629 C63.3021438,20.1758645 63.0886628,18.1233842 60.9180024,18.1233842 C59.1285451,18.1233842 57.8082057,19.4179618 57.2551367,19.9530155 L57.2551367,32.0918877 L59.4272384,33.4860898 C59.8066401,33.7314578 60.0150768,33.763525 60.0222829,34.1104992 L60.0222829,35.6165761 C60.0222829,36.1076725 59.9377913,36.2427871 59.4272384,36.2427871 L49.6743092,36.2427871 C49.1626754,36.2427871 49.0780036,36.1076725 49.0780036,35.6165761 L49.0780036,34.1104992 C49.0780036,33.8074823 49.2219457,33.7867647 49.6743092,33.4860898 L51.8460506,32.0918877 L51.8460506,22.1406103 C51.8460506,19.907617 51.6754459,19.2839282 51.4208901,18.3482148 L49.376877,16.9527517 C49.0558448,16.7250386 48.7794905,16.6147851 48.7794905,16.3270812 L48.7794905,14.8217249 C48.7794905,14.3308086 48.8656035,14.1973154 49.376877,14.1973154 L55.2954352,14.1973154 C56.3176219,14.1973154 56.3606784,15.5353099 56.6584709,16.516782 C57.9361141,15.3574991 59.8089821,13.4390525 63.174956,13.4390525 C67.6865212,13.4390525 68.7114101,16.6055973 68.7114101,20.487889 L68.7114101,32.0918877 L70.8829713,33.4224958 C71.1960768,33.6103951 71.4785563,33.6469662 71.4785563,34.1377022 L71.4785563,35.6165761 Z" fill="#FEFEFE"></path>
                    <path d="M88.3012017,20.6214182 C88.3012017,15.9819446 86.2993444,13.4390886 80.976191,13.4390886 C77.6954294,13.4390886 73.4800353,14.5100966 73.4800353,15.5353459 C73.4800353,15.7138773 73.5643468,15.891688 73.6075834,16.0705797 L74.4591655,18.7925075 C74.5007808,18.9726603 74.6712053,19.2387459 74.8848664,19.2387459 C75.4388361,19.2387459 77.7817226,17.9007515 80.1649632,17.9007515 C82.8486987,17.9007515 83.1886469,19.1951489 83.1886469,21.2029513 L83.1886469,22.587245 C79.8239341,22.587245 72.0752042,22.587245 72.0752042,30.1284389 C72.0752042,34.3213139 74.5440174,37.001086 78.4621595,37.001086 C81.613031,37.001086 83.1041553,35.2152318 83.9573587,34.3213139 C84.1250809,35.1265967 84.2104733,36.2426429 85.2330203,36.2426429 L90.5565339,36.2426429 C91.0678074,36.2426429 91.1533799,36.1075284 91.1533799,35.6166122 L91.1533799,34.2978941 C91.1533799,33.8075183 90.6765156,33.5468373 90.5565339,33.4861258 L88.7258217,32.0917435 C88.512701,31.1992668 88.3012017,30.4410039 88.3012017,28.3442061 L88.3012017,20.6214182 Z M83.1886469,31.1549493 C82.6795353,31.6896426 81.5703348,32.8505469 79.99598,32.8505469 C78.3767671,32.8505469 77.1841559,31.5565097 77.1841559,29.8149731 C77.1841559,25.8887242 82.1241243,26.244706 83.1886469,26.244706 L83.1886469,31.1549493 Z" fill="#FEFEFE"></path>
                    <path d="M123.235864,20.6214182 C123.235864,15.9819446 121.234006,13.4390886 115.909952,13.4390886 C112.630632,13.4390886 108.415058,14.5100966 108.415058,15.5353459 C108.415058,15.7138773 108.498108,15.891688 108.541885,16.0705797 L109.393827,18.7925075 C109.437424,18.9726603 109.606948,19.2387459 109.817907,19.2387459 C110.372958,19.2387459 112.715844,17.9007515 115.100166,17.9007515 C117.78318,17.9007515 118.12475,19.1951489 118.12475,21.2029513 L118.12475,22.587245 C114.758596,22.587245 107.009866,22.587245 107.009866,30.1284389 C107.009866,34.3213139 109.478679,37.001086 113.397362,37.001086 C116.549494,37.001086 118.037916,35.2152318 118.89112,34.3213139 C119.061184,35.1265967 119.145676,36.2426429 120.168943,36.2426429 L125.491016,36.2426429 C126.002649,36.2426429 126.088582,36.1075284 126.088582,35.6166122 L126.088582,34.2978941 C126.088582,33.8075183 125.610277,33.5468373 125.491016,33.4861258 L123.660123,32.0917435 C123.449705,31.1992668 123.235864,30.4410039 123.235864,28.3442061 L123.235864,20.6214182 Z M118.12475,31.1549493 C117.613116,31.6896426 116.505717,32.8505469 114.930101,32.8505469 C113.313411,32.8505469 112.119358,31.5565097 112.119358,29.8149731 C112.119358,25.8887242 117.061128,26.244706 118.12475,26.244706 L118.12475,31.1549493 Z" fill="#FEFEFE"></path>
                    <path d="M99.4416313,29.1469127 C99.4416313,30.5746232 99.4416313,31.8686604 100.889879,31.8686604 C102.592503,31.8686604 103.659007,31.0203211 104.253151,31.0203211 C104.423395,31.0203211 104.551844,31.1102173 104.59454,31.2883884 L105.445222,34.947651 C105.489179,35.0811441 105.531154,35.2153579 105.531154,35.349932 C105.531154,36.1519721 102.421898,37.0012121 99.5270237,37.0012121 C94.0347069,37.0012121 94.0347069,32.4939706 94.0347069,28.3882895 L94.0347069,18.3481968 L92.1186023,18.3481968 C91.607509,18.3481968 91.5224769,18.2121815 91.5224769,17.7219859 L91.5224769,14.8217068 C91.5224769,14.3307906 91.607509,14.1974776 92.1186023,14.1974776 L94.0347069,14.1974776 L94.0347069,9.39388477 C94.0347069,8.81361277 94.1186581,8.67903867 94.7146034,8.59094398 L98.4621408,8.05462925 C98.5904096,8.05462925 98.7599333,8.00995137 99.0150296,8.00995137 C99.3994755,8.00995137 99.4416313,8.23406139 99.4416313,8.76839443 L99.4416313,14.1974776 L104.297108,14.1974776 C104.722989,14.1974776 105.063298,14.2855723 105.063298,14.6428152 C105.063298,14.8217068 105.021863,14.9110626 104.978986,15.0899543 L104.3816,17.7219859 C104.253151,18.3015373 103.998595,18.3481968 103.572714,18.3481968 L99.4416313,18.3481968 L99.4416313,29.1469127 Z" fill="#FEFEFE"></path>
                </g>
            </g>
        </g>
    </g>
</svg>