<svg width="16px" height="16px" viewBox="0 0 16 16" version="1.1" xmlns="http://www.w3.org/2000/svg" xmlns:xlink="http://www.w3.org/1999/xlink">
                                    <g stroke="none" stroke-width="1" fill="none" fill-rule="evenodd">
                                        <g transform="translate(-1284.000000, -136.000000)" fill="#1E2044">
                                            <g>
                                                <g transform="translate(0.000000, 45.000000)">
                                                    <g transform="translate(1146.000000, 82.000000)">
                                                        <path d="M153.708186,23.294 L150.600531,20.186 C151.475219,19.018 152.000031,17.572 152.000031,16 C152.000031,12.134 148.865231,9 144.999513,9 C141.133795,9 138,12.134 138,16 C138,19.866 141.133795,23 144.999513,23 C146.57194,23 148.017689,22.475 149.18595,21.6 L152.293605,24.708 C152.48865,24.903 152.744019,25 153.000393,25 C153.256767,25 153.513141,24.903 153.708186,24.708 C154.097271,24.319 154.097271,23.683 153.708186,23.294 L153.708186,23.294 Z M139.882353,16.0588235 C139.882353,13.2045176 142.204634,10.8823529 145.058824,10.8823529 C147.913013,10.8823529 150.235294,13.2045176 150.235294,16.0588235 C150.235294,18.9131294 147.913013,21.2352941 145.058824,21.2352941 C142.204634,21.2352941 139.882353,18.9131294 139.882353,16.0588235 L139.882353,16.0588235 Z"></path>
                                                    </g>
                                                </g>
                                            </g>
                                        </g>
                                    </g>
                                </svg>