<svg width="41" height="41" viewBox="0 0 41 41" xmlns="http://www.w3.org/2000/svg">
  <g fill="#FFF">
    <path d="M0 20.5C0 9.178 9.178 0 20.5 0S41 9.178 41 20.5 31.822 41 20.5 41 0 31.822 0 20.5Zm30.976-5.062a2.776 2.776 0 0 0-1.933-1.985c-1.705-.47-8.543-.47-8.543-.47s-6.838 0-8.543.47a2.776 2.776 0 0 0-1.933 1.985c-.457 1.75-.457 5.404-.457 5.404s0 3.653.457 5.404a2.776 2.776 0 0 0 1.933 1.985c1.705.469 8.543.469 8.543.469s6.838 0 8.543-.47a2.776 2.776 0 0 0 1.933-1.984c.457-1.751.457-5.404.457-5.404s0-3.654-.457-5.404Z"/>
    <path d="M18.45 24.6v-6.833l5.467 3.416z"/>
  </g>
</svg>
