<svg width="41px" height="41px" viewBox="0 0 48 48" version="1.1" xmlns="http://www.w3.org/2000/svg" xmlns:xlink="http://www.w3.org/1999/xlink">
                                <g stroke="none" stroke-width="1" fill="none" fill-rule="evenodd">
                                    <g transform="translate(-240.000000, -3728.000000)" fill="#FFFFFF" fill-rule="nonzero">
                                        <g transform="translate(0.000000, 3142.000000)">
                                            <g transform="translate(240.000000, 586.000000)">
                                                <path d="M24,48 C10.745166,48 0,37.254834 0,24 C0,10.745166 10.745166,0 24,0 C37.254834,0 48,10.745166 48,24 C48,37.254834 37.254834,48 24,48 Z M24.791075,37.3525167 C32.6594886,37.3493038 39.058985,30.9482694 39.0621443,23.0815035 C39.0636535,19.2683334 37.5805938,15.6828194 34.8862063,12.985411 C32.1918187,10.2878654 28.608639,8.80164768 24.7909377,8.8 C16.9248172,8.8 10.5227805,15.2016934 10.5196498,23.0702443 C10.5185789,25.5854866 11.1757332,28.0405195 12.4246147,30.2048446 L10.4,37.6 L17.9653482,35.6154517 C20.0498014,36.7524275 22.3967046,37.3516929 24.7851708,37.3525167 L24.791075,37.3525167 Z"></path>
                                                <path d="M18.315867,33.0318851 L13.8264843,34.2095452 L15.024768,29.8324252 L14.7427382,29.3836352 C13.5553705,27.4951198 12.928259,25.312368 12.929178,23.0710682 C12.9317742,16.5311059 18.2529252,11.2104354 24.7957434,11.2104354 C27.9639796,11.2115338 30.9421821,12.4468906 33.1816694,14.6889868 C35.4211568,16.931083 36.6537674,19.9112078 36.6525325,23.0806797 C36.6499228,29.6211362 31.3288403,34.9423422 24.791075,34.9423422 L24.7862692,34.9423422 C22.657795,34.9415184 20.5701837,34.3696734 18.7490039,33.2889525 L18.315867,33.0318851 Z M31.980777,26.4751302 C31.8916643,26.3263848 31.6539848,26.2371486 31.2973969,26.0585938 C30.940809,25.8801213 29.1876652,25.0175685 28.8607358,24.8984542 C28.5339436,24.7795046 28.2961268,24.7200641 28.0584473,25.0769266 C27.8207678,25.4338578 27.1373878,26.2371486 26.9293666,26.4751302 C26.7213456,26.7130431 26.5133246,26.7429212 26.156874,26.5643664 C25.8002861,26.3858939 24.6512958,26.0093827 23.2892454,24.7944848 C22.2291756,23.8489158 21.5135282,22.6812518 21.3055209,22.3242519 C21.0975136,21.9672522 21.2833458,21.7743349 21.4618594,21.5965215 C21.6222896,21.4366954 21.8184747,21.1799302 21.996755,20.9717718 C22.1750352,20.7636134 22.2344619,20.614772 22.3533291,20.3769552 C22.4721826,20.1388638 22.4127696,19.9307054 22.323602,19.7522055 C22.2344619,19.5737056 21.5213273,17.8185022 21.2241798,17.1045026 C20.9347079,16.4091767 20.640746,16.5033698 20.4218777,16.4923851 C20.2141175,16.4819498 19.9761359,16.4797529 19.7384427,16.4797529 C19.5007358,16.4797529 19.1143933,16.5690028 18.7875462,16.9260026 C18.4606991,17.2830025 17.539516,18.1457062 17.539516,19.9007723 C17.539516,21.6559758 18.8172458,23.3515876 18.9955535,23.5895418 C19.1738338,23.8276331 21.5099857,27.4292946 25.0871102,28.9738818 C25.9378683,29.3413033 26.6020253,29.5607071 27.1199497,29.7250232 C27.9741404,29.9964941 28.7515762,29.9581853 29.3658905,29.8663265 C30.0510555,29.763991 31.4756222,29.0037737 31.7728932,28.1708518 C32.0698896,27.3377653 32.0698896,26.6238069 31.980777,26.4751302 Z"></path>
                                            </g>
                                        </g>
                                    </g>
                                </g>
                            </svg>